<svg id="Layer_1" data-name="Layer 1" xmlns="http://www.w3.org/2000/svg" width="64" height="64" viewBox="0 0 64 64"><defs><style>.cls-1{fill:#426573;}.cls-2{fill:#f6a23d;}.cls-3{fill:#d5dfef;}</style></defs><title>to-do</title><path class="cls-1" d="M10.78,12.13c.2-1.83.54-4.67,3.45-4.88s2.8,1,3.21,1,2.09-1.5,4-1.33,2.17,1.54,2.92,1.54,2-1.5,3.83-1.5S30.69,8.25,31,8.21A6.76,6.76,0,0,1,34.19,7C36,7,36.32,8.25,36.82,8.38s1.33-1.55,3.41-1.55S42.69,8,43.11,8s1.42-1.16,3.29-1.12,2.17,1,2.54,1,1.63-1.13,2.46,0,1.38,3,1.46,14.29.75,27.41.08,29.66a4.82,4.82,0,0,1-4.62,3.8c-2.5.16-3.34-1.05-3.79-1S42.82,56.08,40.65,56s-2.29-1-2.87-.92-1.34,1.38-3.59,1.3a8.41,8.41,0,0,1-3-.63,8.37,8.37,0,0,1-3.33.79A11.06,11.06,0,0,1,25.23,56c-.5,0-1.95,1.17-3.54,1.17a8.93,8.93,0,0,1-3.21-1c-.33,0-1.91.87-3.62.12s-2.08-2.29-2.5-7.25S10.61,13.58,10.78,12.13Z"/><path class="cls-2" d="M13.53,9.21c1.73-.83,2.83,1.21,3.7,1S19,8.58,21.07,8.79s1.71,1.5,3.25,1.5S26.11,9,27.94,8.88s1.34,1.16,2.79,1.33,1.17-1.33,2.88-1.33,2.12,1.58,3.5,1.5S38.32,9,39.94,8.79s1.17,1.67,3,1.54,1.09-1.58,2.92-1.66,1.08,1,2.54,1.08,1.71-.54,2-.08.5,14.54.75,21.79.46,19.29,0,20.25a3.07,3.07,0,0,1-3,2.17c-1.92,0-3-1.09-3.87-1.09s-1.8,1.71-3.63,1.42-2-1-2.87-1.08S35.73,54.75,34,54.54s-2.13-.87-2.8-.79-1.16,1.5-3.5,1.13-2.41-1.09-3.08-1-1.87,1.87-3.46,1.62-1.37-.87-2.21-1-1.79,1.13-3.45,0-1.67-8.12-1.92-15.91-1.29-24.46-1.29-25.75S12.65,9.63,13.53,9.21Z"/><path class="cls-1" d="M42.69,22a5.74,5.74,0,0,0-7.08-3.91c-8,2.75-3.92,10.75,1.25,10.83S43.48,25.29,42.69,22Zm-5.85,3a1.46,1.46,0,0,1,.22-2.43,1.63,1.63,0,0,1,2.31,1.46A1.52,1.52,0,0,1,36.84,25.08Z"/><path class="cls-1" d="M33.68,39.05c-.75-4-3-5.87-7.47-6.25a18.83,18.83,0,0,0-7.5.78c-.28.28-.06,3.38.07,3.5A11.32,11.32,0,0,0,21,36.71s.16.19.19,1.4.63,8.22.19,9.16-1.63.47-1.88.59,0,1.66,0,1.66a8.5,8.5,0,0,0,2.87.34,15.88,15.88,0,0,0,8.53-2.5C34.59,45.05,34.43,43,33.68,39.05Zm-6,4.53c-.31.38-1.16.38-1.16.38s-.4-5.78-.21-6,3.12.06,3.28,2.19S28,43.21,27.65,43.58Z"/><path class="cls-1" d="M46.15,40.8c-1.22-4.44-6.1-4.36-7.62-3.53C35.43,39,35.15,42.68,36,45.33s4,3.16,6.44,2.47S47.37,45.24,46.15,40.8Zm-6.29,3.37a1.51,1.51,0,0,1,.29-2.74,1.77,1.77,0,0,1,2.42,1.28A1.69,1.69,0,0,1,39.86,44.17Z"/><path class="cls-1" d="M16.82,14.21s13.75-.92,13.83-.38a41.33,41.33,0,0,1,0,4.55c-.08.12-3.71.33-3.71.58s.42,9,.25,9.37-4.87.71-4.91.3-1-10-1-10-4.05.25-4.17-.09S16.53,14.38,16.82,14.21Z"/><path class="cls-3" d="M17.82,15.17s11.54-.5,11.62-.29a10.88,10.88,0,0,1,.29,2.54c-.12,0-4.16.79-4.16.79s.58,9.08.46,9.21a16.94,16.94,0,0,1-2.3.25l-1.45-10-4.09-.09S17.61,15.38,17.82,15.17Z"/><path class="cls-3" d="M41.45,22.34a4.49,4.49,0,0,0-5.54-3.06c-6.25,2.15-3.06,8.41,1,8.47S42.07,24.88,41.45,22.34ZM36.37,26.4a2.6,2.6,0,0,1,.75-4.94c1.73-.2,3.64.69,3.69,2.15C40.87,25.77,38.59,27.18,36.37,26.4Z"/><path class="cls-3" d="M29.15,34.24c-2.72-1.13-9.11-.15-9.31,0s-.06,1.41.09,1.59,1.44-.34,1.69-.09,1.22,11.06,1.22,11.44-1.28,1-1.44,1.09-.09.5.22.63,2.87-.13,6.78-1.6,4.44-3.5,4.41-5.31S31.87,35.36,29.15,34.24Zm.38,9.47c-1.47,1.37-3.79,2.12-4.16,1.47s-.69-8.16-.44-8.38,5.06-.12,5.66,2.1S31,42.33,29.53,43.71Z"/><path class="cls-3" d="M45,41.18c-.94-3.42-4.71-3.36-5.88-2.72-2.39,1.3-2.61,4.17-2,6.22s3.11,2.43,5,1.9S45.92,44.6,45,41.18Zm-5.83,3.87c-2.28-1.84-1.12-4,.5-4.69a3,3,0,0,1,4.16,2.19C44.06,44.52,41.43,46.9,39.15,45.05Z"/><path class="cls-1" d="M16.18,29.05c.1.25,1.06-.15,1.06-.15l-.53-5.69a5,5,0,0,0-1.06.09C15.56,23.46,16.09,28.8,16.18,29.05Zm-1.4-18.37a2.09,2.09,0,0,0-1.57.59.71.71,0,0,0,.28.81c.25.1.41-.22.85-.43s1.19-.32,1.28-.44S15.59,10.71,14.78,10.68Zm6.87-.07c.09-.12,0-.5-.84-.53a2.08,2.08,0,0,0-1.57.6.72.72,0,0,0,.29.81c.25.09.4-.22.84-.44S21.56,10.74,21.65,10.61Zm5,.66c.25.09.41-.22.84-.44s1.19-.31,1.29-.43,0-.5-.85-.54a2.08,2.08,0,0,0-1.56.6A.7.7,0,0,0,26.65,11.27Zm6.88,0c.43-.22,1.18-.31,1.28-.44s0-.5-.85-.53a2.12,2.12,0,0,0-1.56.59.73.73,0,0,0,.28.82C32.93,11.77,33.09,11.46,33.53,11.24Zm5.43.25c.25.09.41-.22.85-.44s1.18-.31,1.28-.44,0-.5-.85-.53a2.08,2.08,0,0,0-1.56.6A.72.72,0,0,0,39,11.49Zm7.13-.38c.44-.21,1.19-.31,1.28-.43s0-.5-.84-.53a2,2,0,0,0-1.57.59.71.71,0,0,0,.28.81C45.49,11.65,45.65,11.33,46.09,11.11Zm-.35,14c.07.19,1.66,2.85,1.79,3s.65-.22.75-.47a13.72,13.72,0,0,0-1.41-3.09C46.71,24.36,45.74,25.08,45.74,25.08Zm1.94,5.44a20.16,20.16,0,0,0-1.31-3,2.13,2.13,0,0,0-1.06.5,29.62,29.62,0,0,0,1.43,2.81C46.87,30.93,47.62,30.71,47.68,30.52ZM34.87,32.8c0,.1,2.12,3.6,2.31,3.78s.66-.37.75-.62a21,21,0,0,0-2.06-3.69C35.74,32.21,34.83,32.7,34.87,32.8Zm4.59,2.66c.25.06.72-.31.78-.5a25.71,25.71,0,0,0-1.84-3.63,4.08,4.08,0,0,0-.81.38A18.49,18.49,0,0,0,39.46,35.46Zm.66-4.06a17.12,17.12,0,0,0,1.25,2.68s.59-.15.72-.4a13.1,13.1,0,0,0-1.22-2.63S40.17,31.27,40.12,31.4ZM16.24,52.61c-.18-.06-.65.38-.68.54s.22.43.81.71a1.67,1.67,0,0,0,1.44.07.68.68,0,0,0,.43-.63c0-.19-.53,0-1.28-.15S16.24,52.61,16.24,52.61Zm4.75.25c-.18-.06-.65.38-.68.54s.22.43.81.71a1.67,1.67,0,0,0,1.44.07.68.68,0,0,0,.43-.63c0-.19-.53,0-1.28-.15S21,52.86,21,52.86Zm6-.53c-.19-.06-.66.38-.69.53s.22.44.81.72a1.71,1.71,0,0,0,1.44.07A.71.71,0,0,0,29,53c0-.19-.54,0-1.29-.16S27,52.33,27,52.33Zm6.18-.43c-.18-.07-.65.37-.68.53s.21.43.81.72a1.7,1.7,0,0,0,1.44.06.69.69,0,0,0,.43-.63c0-.18-.53,0-1.28-.15S33.21,51.9,33.21,51.9ZM40,51.77c-.19-.06-.66.38-.69.53s.22.44.81.72a1.66,1.66,0,0,0,1.44.06.68.68,0,0,0,.44-.62c0-.19-.54,0-1.29-.16S40,51.77,40,51.77Zm7.87-.19c-.75-.12-.72-.53-.72-.53-.19-.06-.65.38-.69.53s.22.44.82.72a1.64,1.64,0,0,0,1.43.06.67.67,0,0,0,.44-.62C49.15,51.55,48.65,51.71,47.9,51.58Z"/></svg>